<?xml version="1.0" encoding="utf-8"?>
<svg xmlns="http://www.w3.org/2000/svg" viewBox="0 0 24 24" width="96" height="96">
  <path d="M12 2C11.467 2 10.933484 2.1991563 10.521484 2.5976562L9.8164062 3.2792969L8.8457031 3.1425781C7.7107031 2.9815781 6.652125 3.7518594 6.453125 4.8808594L6.2832031 5.8476562L5.4160156 6.3066406C4.4040156 6.8436406 4.0009062 8.0871875 4.5039062 9.1171875L4.9335938 10L4.5039062 10.882812C4.0009062 11.912813 4.4049688 13.156359 5.4179688 13.693359L6.2832031 14.152344L6.453125 15.119141C6.651125 16.248141 7.7097031 17.017422 8.8457031 16.857422L9.8183594 16.720703L10.523438 17.402344C11.347437 18.199344 12.654516 18.199344 13.478516 17.402344L14.183594 16.720703L15.15625 16.857422C16.29125 17.018422 17.349828 16.249141 17.548828 15.119141L17.71875 14.152344L18.585938 13.693359C19.598937 13.156359 20.002047 11.912813 19.498047 10.882812L19.066406 10L19.496094 9.1171875C20.000094 8.0871875 19.595984 6.8436406 18.583984 6.3066406L17.716797 5.8476562L17.546875 4.8808594C17.348875 3.7518594 16.290297 2.9825781 15.154297 3.1425781L14.183594 3.2792969L13.478516 2.5976562C13.066516 2.1991562 12.533 2 12 2 z M 4.9824219 15.017578L1.5722656 18.427734C1.3092656 18.690734 1.4155781 19.137859 1.7675781 19.255859L4 20L4.7441406 22.232422C4.8621406 22.585422 5.3092656 22.690734 5.5722656 22.427734L9.5898438 18.410156L9.34375 18.175781L8.1171875 18.347656C7.8061875 18.391656 7.5020313 18.3765 7.2070312 18.3125C6.1790312 18.0915 5.4241875 17.205922 5.2421875 16.169922L5.046875 15.052734L4.9824219 15.017578 z M 19.017578 15.017578L18.953125 15.052734L18.740234 16.271484C18.526234 17.489484 17.474281 18.373047 16.238281 18.373047C16.120281 18.373047 16.002813 18.364656 15.882812 18.347656L14.65625 18.175781L14.410156 18.412109L18.427734 22.429688C18.690734 22.692688 19.137859 22.586375 19.255859 22.234375L20 20L22.232422 19.255859C22.585422 19.137859 22.690734 18.690734 22.427734 18.427734L19.017578 15.017578 z" fill="#FFFFFF" />
</svg>