<?xml version="1.0" encoding="utf-8"?>
<svg xmlns="http://www.w3.org/2000/svg" viewBox="0 0 24 24" width="96" height="96">
  <path d="M5 3C3.895 3 3 3.895 3 5L3 7L3 19C3 20.093063 3.9069372 21 5 21L19 21C20.093063 21 21 20.093063 21 19L21 6L21 5C21 3.895 20.105 3 19 3L5 3 z M 5 7L19 7L19 19L5 19L5 7 z M 10 10.085938C9.819 10.085938 9.638 10.154969 9.5 10.292969L7.5 12.292969C7.109 12.682969 7.109 13.316031 7.5 13.707031L9.5 15.707031C9.776 15.983031 10.224 15.983031 10.5 15.707031C10.776 15.431031 10.776 14.983031 10.5 14.707031L8.7929688 13L10.5 11.292969C10.776 11.016969 10.776 10.568969 10.5 10.292969C10.362 10.154969 10.181 10.085938 10 10.085938 z M 14 10.085938C13.819 10.085938 13.638 10.154969 13.5 10.292969C13.224 10.568969 13.224 11.016969 13.5 11.292969L15.207031 13L13.5 14.707031C13.224 14.983031 13.224 15.431031 13.5 15.707031C13.776 15.983031 14.224 15.983031 14.5 15.707031L16.5 13.707031C16.891 13.316031 16.891 12.682969 16.5 12.292969L14.5 10.292969C14.362 10.154969 14.181 10.085938 14 10.085938 z" fill="#FFFFFF" />
</svg>