<?xml version="1.0" encoding="utf-8"?>
<svg xmlns="http://www.w3.org/2000/svg" viewBox="0 0 50 50" width="500" height="500">
  <path d="M17 1C10.317 1 6 4.14 6 9L6 18C6 20.381 3.9590938 22.468016 2.4960938 22.916016C1.6020938 23.190016 1 23.974141 1 24.869141L1 25.224609C1 26.090609 1.5756406 26.828453 2.4316406 27.064453C3.8876406 27.465453 6 29.587 6 32L6 41C6 45.859 10.317 49 17 49C17.553 49 18 48.553 18 48L18 46C18 45.447 17.553 45 17 45C15.558 45 14 43.471 14 41L14 32C14 29.03 11.839 26.464 9.875 25C11.839 23.536 14 20.97 14 18L14 9C14 6.529 15.558 5 17 5C17.553 5 18 4.552 18 4L18 2C18 1.448 17.553 1 17 1 z M 33 1C32.447 1 32 1.448 32 2L32 4C32 4.552 32.447 5 33 5C34.442 5 36 6.529 36 9L36 18C36 20.97 38.161 23.536 40.125 25C38.161 26.464 36 29.03 36 32L36 41C36 43.471 34.442 45 33 45C32.447 45 32 45.447 32 46L32 48C32 48.553 32.447 49 33 49C39.683 49 44 45.859 44 41L44 32C44 29.62 46.040906 27.531984 47.503906 27.083984C48.397906 26.808984 49 26.024859 49 25.130859L49 24.775391C49 23.909391 48.424359 23.170547 47.568359 22.935547C46.113359 22.534547 44 20.412 44 18L44 9C44 4.14 39.683 1 33 1 z" fill="#FFFFFF" />
</svg>