<?xml version="1.0" encoding="utf-8"?>
<svg xmlns="http://www.w3.org/2000/svg" viewBox="0 0 24 24" width="96" height="96">
  <path d="M10 2C8.895 2 8 2.895 8 4L8 5L8 6C8 6.552 7.552 7 7 7C6.448 7 6 6.552 6 6L6 5L4 5C2.895 5 2 5.895 2 7L2 18C2 19.105 2.895 20 4 20L20 20C21.105 20 22 19.105 22 18L22 7C22 5.895 21.105 5 20 5L18 5L18 6C18 6.552 17.552 7 17 7C16.448 7 16 6.552 16 6L16 5L16 4C16 2.895 15.105 2 14 2L10 2 z M 10 4L14 4L14 5L10 5L10 4 z M 14.5 10C15.328 10 16 10.672 16 11.5C16 12.328 15.328 13 14.5 13C13.672 13 13 12.328 13 11.5C13 10.672 13.672 10 14.5 10 z M 18.609375 13.001953C18.803719 12.989766 18.995641 13.092094 19.087891 13.277344L19.640625 14.382812C19.764625 14.629812 19.664016 14.931688 19.416016 15.054688L14.638672 17.570312C14.391672 17.692312 14.09275 17.591703 13.96875 17.345703L13.414062 16.240234C13.290062 15.993234 13.392625 15.691359 13.640625 15.568359L18.417969 13.052734C18.479719 13.021984 18.544594 13.006016 18.609375 13.001953 z" fill="#FFFFFF" />
</svg>